<?xml version="1.0" encoding="UTF-8"?>
<svg xmlns="http://www.w3.org/2000/svg" version="1.1" width="400" height="400" viewBox="0 0 400 400"><rect x="0" y="0" width="400" height="400" fill="#fefefe"/><g transform="scale(6.557)"><g transform="translate(4,4)"><path fill-rule="evenodd" d="M8 0L8 1L9 1L9 2L8 2L8 5L10 5L10 4L9 4L9 3L12 3L12 2L14 2L14 3L15 3L15 6L14 6L14 4L13 4L13 6L12 6L12 7L13 7L13 10L12 10L12 11L13 11L13 10L14 10L14 8L15 8L15 11L16 11L16 12L17 12L17 14L18 14L18 15L19 15L19 16L20 16L20 15L19 15L19 14L21 14L21 15L22 15L22 14L21 14L21 13L19 13L19 12L20 12L20 9L21 9L21 12L24 12L24 13L25 13L25 14L26 14L26 15L23 15L23 17L25 17L25 18L23 18L23 19L22 19L22 20L21 20L21 19L19 19L19 20L20 20L20 21L23 21L23 22L22 22L22 23L23 23L23 22L24 22L24 23L28 23L28 21L29 21L29 24L23 24L23 25L22 25L22 26L23 26L23 25L24 25L24 27L20 27L20 28L19 28L19 30L20 30L20 28L23 28L23 29L24 29L24 30L25 30L25 31L24 31L24 32L28 32L28 31L29 31L29 30L30 30L30 31L32 31L32 29L33 29L33 31L34 31L34 32L35 32L35 33L36 33L36 35L35 35L35 36L34 36L34 34L33 34L33 33L32 33L32 34L33 34L33 36L34 36L34 37L33 37L33 38L32 38L32 40L30 40L30 38L29 38L29 40L28 40L28 41L27 41L27 40L25 40L25 37L26 37L26 38L27 38L27 39L28 39L28 37L29 37L29 36L30 36L30 37L32 37L32 35L31 35L31 33L30 33L30 32L29 32L29 33L27 33L27 34L29 34L29 35L25 35L25 37L24 37L24 40L23 40L23 41L22 41L22 39L23 39L23 37L22 37L22 39L21 39L21 37L19 37L19 36L18 36L18 39L17 39L17 40L19 40L19 41L18 41L18 43L15 43L15 42L14 42L14 43L15 43L15 44L13 44L13 45L12 45L12 44L11 44L11 41L12 41L12 43L13 43L13 41L12 41L12 40L14 40L14 41L15 41L15 40L16 40L16 39L15 39L15 40L14 40L14 38L12 38L12 39L11 39L11 37L9 37L9 38L8 38L8 36L11 36L11 35L9 35L9 34L8 34L8 33L9 33L9 32L10 32L10 33L11 33L11 34L13 34L13 35L12 35L12 36L13 36L13 37L14 37L14 35L15 35L15 38L16 38L16 37L17 37L17 36L16 36L16 35L17 35L17 33L18 33L18 35L20 35L20 33L18 33L18 32L17 32L17 29L15 29L15 28L16 28L16 27L17 27L17 28L18 28L18 27L17 27L17 26L21 26L21 25L20 25L20 23L19 23L19 22L16 22L16 23L15 23L15 22L14 22L14 21L13 21L13 20L15 20L15 21L16 21L16 20L17 20L17 21L18 21L18 19L17 19L17 18L18 18L18 17L17 17L17 18L16 18L16 17L15 17L15 18L14 18L14 16L15 16L15 14L16 14L16 13L14 13L14 12L12 12L12 16L11 16L11 15L10 15L10 14L9 14L9 16L11 16L11 17L8 17L8 13L10 13L10 12L9 12L9 10L10 10L10 9L11 9L11 6L10 6L10 8L8 8L8 9L7 9L7 8L6 8L6 9L7 9L7 10L6 10L6 11L7 11L7 10L8 10L8 12L5 12L5 13L3 13L3 12L4 12L4 11L5 11L5 9L4 9L4 8L0 8L0 11L1 11L1 12L2 12L2 13L3 13L3 14L5 14L5 16L4 16L4 17L3 17L3 16L2 16L2 14L1 14L1 13L0 13L0 15L1 15L1 16L2 16L2 17L0 17L0 18L2 18L2 17L3 17L3 18L4 18L4 19L8 19L8 20L6 20L6 21L9 21L9 23L10 23L10 19L11 19L11 20L12 20L12 23L13 23L13 22L14 22L14 23L15 23L15 24L16 24L16 23L18 23L18 24L17 24L17 26L15 26L15 25L11 25L11 24L10 24L10 25L11 25L11 27L12 27L12 28L11 28L11 29L15 29L15 30L13 30L13 31L12 31L12 30L10 30L10 29L9 29L9 28L10 28L10 27L9 27L9 24L4 24L4 23L8 23L8 22L3 22L3 23L2 23L2 24L1 24L1 25L3 25L3 26L0 26L0 27L1 27L1 29L3 29L3 30L2 30L2 31L1 31L1 32L0 32L0 33L1 33L1 34L0 34L0 35L1 35L1 36L2 36L2 35L3 35L3 36L4 36L4 38L1 38L1 37L0 37L0 39L3 39L3 40L0 40L0 43L1 43L1 44L3 44L3 45L4 45L4 44L3 44L3 43L8 43L8 42L9 42L9 44L6 44L6 45L8 45L8 46L9 46L9 45L10 45L10 44L11 44L11 45L12 45L12 46L10 46L10 47L9 47L9 49L8 49L8 53L10 53L10 51L12 51L12 53L13 53L13 52L15 52L15 53L17 53L17 52L16 52L16 51L20 51L20 52L19 52L19 53L20 53L20 52L21 52L21 53L22 53L22 52L21 52L21 51L24 51L24 52L26 52L26 50L27 50L27 53L28 53L28 50L29 50L29 46L30 46L30 49L32 49L32 47L33 47L33 45L30 45L30 44L28 44L28 41L29 41L29 43L30 43L30 41L33 41L33 42L32 42L32 44L34 44L34 45L36 45L36 44L38 44L38 42L37 42L37 43L35 43L35 44L34 44L34 42L36 42L36 41L35 41L35 40L34 40L34 39L35 39L35 38L36 38L36 40L37 40L37 39L38 39L38 38L39 38L39 35L40 35L40 34L38 34L38 33L41 33L41 34L42 34L42 36L41 36L41 37L40 37L40 39L42 39L42 40L41 40L41 41L40 41L40 40L38 40L38 41L40 41L40 43L39 43L39 45L40 45L40 46L38 46L38 45L37 45L37 47L36 47L36 46L34 46L34 47L36 47L36 48L35 48L35 50L36 50L36 49L37 49L37 47L40 47L40 46L41 46L41 47L42 47L42 48L43 48L43 47L44 47L44 49L43 49L43 50L45 50L45 51L44 51L44 52L45 52L45 53L46 53L46 52L45 52L45 51L48 51L48 53L52 53L52 49L51 49L51 48L50 48L50 49L51 49L51 52L50 52L50 51L48 51L48 50L49 50L49 47L52 47L52 48L53 48L53 47L52 47L52 46L53 46L53 45L52 45L52 44L51 44L51 43L49 43L49 44L47 44L47 43L48 43L48 39L47 39L47 37L46 37L46 38L45 38L45 37L44 37L44 38L45 38L45 39L43 39L43 38L42 38L42 37L43 37L43 36L45 36L45 35L46 35L46 36L49 36L49 40L50 40L50 41L51 41L51 40L52 40L52 39L53 39L53 37L52 37L52 38L51 38L51 36L53 36L53 35L52 35L52 34L53 34L53 32L51 32L51 31L50 31L50 30L52 30L52 29L53 29L53 28L52 28L52 29L51 29L51 28L50 28L50 27L53 27L53 26L51 26L51 25L53 25L53 24L51 24L51 25L50 25L50 27L49 27L49 24L47 24L47 23L51 23L51 21L50 21L50 20L51 20L51 19L49 19L49 21L48 21L48 18L47 18L47 17L48 17L48 15L49 15L49 16L50 16L50 14L51 14L51 16L52 16L52 15L53 15L53 13L52 13L52 12L53 12L53 11L52 11L52 10L53 10L53 8L52 8L52 9L51 9L51 8L48 8L48 9L47 9L47 11L48 11L48 12L47 12L47 13L48 13L48 14L46 14L46 13L44 13L44 12L45 12L45 11L46 11L46 10L45 10L45 11L42 11L42 10L44 10L44 9L42 9L42 7L43 7L43 3L44 3L44 4L45 4L45 3L44 3L44 1L43 1L43 0L42 0L42 2L43 2L43 3L41 3L41 4L42 4L42 5L41 5L41 6L40 6L40 5L39 5L39 2L41 2L41 1L40 1L40 0L39 0L39 2L37 2L37 1L38 1L38 0L35 0L35 2L37 2L37 3L34 3L34 1L33 1L33 0L29 0L29 3L28 3L28 4L24 4L24 7L23 7L23 6L22 6L22 8L21 8L21 6L20 6L20 7L19 7L19 5L21 5L21 4L20 4L20 3L21 3L21 2L17 2L17 0L16 0L16 2L15 2L15 1L13 1L13 0L10 0L10 1L9 1L9 0ZM18 0L18 1L20 1L20 0ZM21 0L21 1L22 1L22 2L24 2L24 3L25 3L25 2L24 2L24 1L27 1L27 2L28 2L28 0ZM11 1L11 2L12 2L12 1ZM30 1L30 3L29 3L29 7L30 7L30 5L31 5L31 7L32 7L32 5L33 5L33 4L34 4L34 5L35 5L35 7L34 7L34 6L33 6L33 7L34 7L34 9L33 9L33 8L31 8L31 9L33 9L33 10L36 10L36 11L38 11L38 10L39 10L39 8L41 8L41 7L42 7L42 6L41 6L41 7L40 7L40 6L39 6L39 5L37 5L37 7L36 7L36 5L35 5L35 4L34 4L34 3L33 3L33 2L31 2L31 1ZM16 2L16 5L19 5L19 4L17 4L17 2ZM30 3L30 4L31 4L31 5L32 5L32 3ZM11 4L11 5L12 5L12 4ZM22 4L22 5L23 5L23 4ZM25 5L25 8L28 8L28 5ZM8 6L8 7L9 7L9 6ZM13 6L13 7L14 7L14 6ZM15 6L15 7L16 7L16 8L18 8L18 10L19 10L19 9L20 9L20 8L19 8L19 7L18 7L18 6L17 6L17 7L16 7L16 6ZM26 6L26 7L27 7L27 6ZM38 6L38 7L37 7L37 8L39 8L39 6ZM44 6L44 8L45 8L45 9L46 9L46 8L45 8L45 6ZM29 8L29 9L28 9L28 11L27 11L27 9L26 9L26 10L25 10L25 11L24 11L24 12L25 12L25 13L27 13L27 14L29 14L29 12L30 12L30 14L32 14L32 13L33 13L33 11L32 11L32 10L31 10L31 11L32 11L32 13L31 13L31 12L30 12L30 8ZM35 8L35 9L36 9L36 8ZM3 9L3 11L2 11L2 10L1 10L1 11L2 11L2 12L3 12L3 11L4 11L4 9ZM16 9L16 11L17 11L17 12L19 12L19 11L17 11L17 9ZM22 9L22 11L23 11L23 9ZM37 9L37 10L38 10L38 9ZM40 9L40 10L41 10L41 9ZM48 9L48 11L49 11L49 13L51 13L51 14L52 14L52 13L51 13L51 12L52 12L52 11L49 11L49 10L50 10L50 9ZM39 11L39 12L38 12L38 13L39 13L39 14L41 14L41 15L42 15L42 16L40 16L40 17L38 17L38 15L36 15L36 17L35 17L35 16L33 16L33 19L32 19L32 17L31 17L31 16L32 16L32 15L31 15L31 16L30 16L30 15L26 15L26 16L28 16L28 19L30 19L30 21L32 21L32 23L33 23L33 24L32 24L32 25L29 25L29 27L30 27L30 28L33 28L33 29L35 29L35 30L34 30L34 31L36 31L36 33L37 33L37 32L38 32L38 30L39 30L39 32L42 32L42 33L43 33L43 32L45 32L45 33L44 33L44 34L46 34L46 35L49 35L49 36L51 36L51 34L52 34L52 33L51 33L51 34L50 34L50 31L49 31L49 29L50 29L50 28L49 28L49 29L48 29L48 32L47 32L47 30L45 30L45 31L40 31L40 30L39 30L39 28L40 28L40 29L42 29L42 30L44 30L44 29L43 29L43 28L44 28L44 25L42 25L42 23L41 23L41 24L40 24L40 22L41 22L41 21L39 21L39 19L40 19L40 20L42 20L42 21L44 21L44 22L43 22L43 23L45 23L45 20L46 20L46 18L45 18L45 17L46 17L46 16L47 16L47 15L46 15L46 14L45 14L45 15L44 15L44 14L43 14L43 13L42 13L42 11ZM27 12L27 13L28 13L28 12ZM34 12L34 14L33 14L33 15L34 15L34 14L37 14L37 13L35 13L35 12ZM5 13L5 14L7 14L7 13ZM13 14L13 16L12 16L12 17L13 17L13 16L14 16L14 14ZM6 15L6 16L5 16L5 17L4 17L4 18L7 18L7 17L6 17L6 16L7 16L7 15ZM43 15L43 16L42 16L42 17L41 17L41 18L42 18L42 20L45 20L45 19L44 19L44 18L42 18L42 17L43 17L43 16L44 16L44 17L45 17L45 16L44 16L44 15ZM21 16L21 18L22 18L22 16ZM26 17L26 18L25 18L25 19L23 19L23 21L24 21L24 22L25 22L25 21L26 21L26 22L27 22L27 21L28 21L28 20L27 20L27 21L26 21L26 18L27 18L27 17ZM29 17L29 18L30 18L30 19L31 19L31 20L32 20L32 19L31 19L31 18L30 18L30 17ZM34 17L34 19L35 19L35 20L33 20L33 21L35 21L35 22L33 22L33 23L34 23L34 24L35 24L35 25L36 25L36 26L39 26L39 27L40 27L40 25L39 25L39 24L38 24L38 25L37 25L37 24L35 24L35 22L36 22L36 19L35 19L35 17ZM36 17L36 18L37 18L37 17ZM50 17L50 18L52 18L52 17ZM11 18L11 19L12 19L12 18ZM13 18L13 19L14 19L14 18ZM0 19L0 21L2 21L2 19ZM37 19L37 20L38 20L38 19ZM52 19L52 20L53 20L53 19ZM3 20L3 21L4 21L4 20ZM24 20L24 21L25 21L25 20ZM37 21L37 22L38 22L38 23L39 23L39 22L38 22L38 21ZM46 21L46 22L47 22L47 21ZM49 21L49 22L50 22L50 21ZM52 21L52 22L53 22L53 21ZM30 22L30 23L31 23L31 22ZM5 25L5 28L8 28L8 25ZM25 25L25 28L28 28L28 25ZM32 25L32 26L33 26L33 28L38 28L38 27L35 27L35 26L34 26L34 25ZM45 25L45 28L48 28L48 25ZM6 26L6 27L7 27L7 26ZM13 26L13 27L14 27L14 28L15 28L15 26ZM26 26L26 27L27 27L27 26ZM46 26L46 27L47 27L47 26ZM3 27L3 28L4 28L4 27ZM41 27L41 28L42 28L42 27ZM6 29L6 30L8 30L8 31L6 31L6 32L5 32L5 30L4 30L4 31L3 31L3 32L1 32L1 33L2 33L2 34L3 34L3 35L5 35L5 36L8 36L8 35L5 35L5 34L4 34L4 33L3 33L3 32L5 32L5 33L6 33L6 34L7 34L7 33L8 33L8 32L9 32L9 31L10 31L10 30L9 30L9 29ZM21 29L21 30L22 30L22 29ZM25 29L25 30L26 30L26 31L27 31L27 30L26 30L26 29ZM30 29L30 30L31 30L31 29ZM36 29L36 30L37 30L37 29ZM11 31L11 32L12 32L12 31ZM13 31L13 34L15 34L15 35L16 35L16 32L15 32L15 31ZM19 31L19 32L20 32L20 31ZM21 31L21 32L22 32L22 34L23 34L23 35L21 35L21 36L23 36L23 35L24 35L24 34L23 34L23 31ZM45 31L45 32L46 32L46 34L49 34L49 32L48 32L48 33L47 33L47 32L46 32L46 31ZM6 32L6 33L7 33L7 32ZM14 32L14 33L15 33L15 32ZM25 33L25 34L26 34L26 33ZM30 35L30 36L31 36L31 35ZM36 35L36 36L37 36L37 35ZM26 36L26 37L27 37L27 36ZM5 37L5 38L7 38L7 39L6 39L6 40L5 40L5 39L4 39L4 41L1 41L1 42L2 42L2 43L3 43L3 42L4 42L4 41L5 41L5 42L8 42L8 40L9 40L9 42L10 42L10 41L11 41L11 39L10 39L10 38L9 38L9 39L8 39L8 38L7 38L7 37ZM34 37L34 38L33 38L33 39L34 39L34 38L35 38L35 37ZM36 37L36 38L37 38L37 37ZM19 38L19 40L20 40L20 41L19 41L19 42L20 42L20 43L19 43L19 44L18 44L18 45L15 45L15 46L16 46L16 47L15 47L15 50L14 50L14 51L16 51L16 50L18 50L18 45L19 45L19 44L20 44L20 43L21 43L21 44L23 44L23 45L20 45L20 46L19 46L19 47L20 47L20 48L19 48L19 49L21 49L21 50L22 50L22 49L23 49L23 50L24 50L24 51L25 51L25 50L24 50L24 48L23 48L23 47L20 47L20 46L23 46L23 45L24 45L24 42L27 42L27 41L24 41L24 42L22 42L22 41L21 41L21 39L20 39L20 38ZM7 39L7 40L6 40L6 41L7 41L7 40L8 40L8 39ZM45 39L45 40L47 40L47 39ZM50 39L50 40L51 40L51 39ZM29 40L29 41L30 41L30 40ZM43 40L43 41L42 41L42 42L44 42L44 43L42 43L42 44L41 44L41 43L40 43L40 44L41 44L41 45L42 45L42 44L45 44L45 43L47 43L47 41L44 41L44 40ZM16 41L16 42L17 42L17 41ZM26 43L26 44L27 44L27 43ZM49 44L49 46L50 46L50 45L51 45L51 46L52 46L52 45L51 45L51 44ZM13 45L13 46L12 46L12 47L13 47L13 49L12 49L12 48L10 48L10 49L9 49L9 50L13 50L13 49L14 49L14 45ZM25 45L25 48L28 48L28 45ZM43 45L43 46L42 46L42 47L43 47L43 46L44 46L44 45ZM45 45L45 48L48 48L48 45ZM26 46L26 47L27 47L27 46ZM31 46L31 47L32 47L32 46ZM46 46L46 47L47 47L47 46ZM16 47L16 49L17 49L17 47ZM27 49L27 50L28 50L28 49ZM38 49L38 51L34 51L34 50L33 50L33 51L29 51L29 52L30 52L30 53L31 53L31 52L32 52L32 53L35 53L35 52L38 52L38 53L40 53L40 52L38 52L38 51L41 51L41 53L43 53L43 52L42 52L42 50L41 50L41 49L40 49L40 50L39 50L39 49ZM46 49L46 50L47 50L47 49ZM0 0L0 7L7 7L7 0ZM1 1L1 6L6 6L6 1ZM2 2L2 5L5 5L5 2ZM46 0L46 7L53 7L53 0ZM47 1L47 6L52 6L52 1ZM48 2L48 5L51 5L51 2ZM0 46L0 53L7 53L7 46ZM1 47L1 52L6 52L6 47ZM2 48L2 51L5 51L5 48Z" fill="#000000"/></g></g></svg>
