<?xml version="1.0" encoding="UTF-8"?>
<svg xmlns="http://www.w3.org/2000/svg" version="1.1" width="400" height="400" viewBox="0 0 400 400"><rect x="0" y="0" width="400" height="400" fill="#fefefe"/><g transform="scale(6.557)"><g transform="translate(4,4)"><path fill-rule="evenodd" d="M8 0L8 2L9 2L9 3L10 3L10 4L11 4L11 6L10 6L10 9L9 9L9 4L8 4L8 9L7 9L7 8L5 8L5 9L7 9L7 10L6 10L6 11L7 11L7 12L6 12L6 13L4 13L4 12L5 12L5 10L4 10L4 9L3 9L3 8L0 8L0 10L1 10L1 9L2 9L2 10L3 10L3 11L2 11L2 12L0 12L0 18L2 18L2 19L3 19L3 20L2 20L2 21L1 21L1 20L0 20L0 21L1 21L1 22L2 22L2 25L3 25L3 24L4 24L4 26L1 26L1 25L0 25L0 26L1 26L1 27L0 27L0 28L1 28L1 29L0 29L0 31L2 31L2 33L1 33L1 32L0 32L0 37L1 37L1 38L0 38L0 39L2 39L2 40L1 40L1 41L0 41L0 43L1 43L1 44L3 44L3 45L4 45L4 44L3 44L3 43L7 43L7 44L6 44L6 45L7 45L7 44L9 44L9 45L8 45L8 46L9 46L9 47L8 47L8 48L9 48L9 49L10 49L10 50L8 50L8 53L9 53L9 52L10 52L10 50L11 50L11 51L12 51L12 53L15 53L15 52L17 52L17 53L19 53L19 52L20 52L20 53L21 53L21 52L22 52L22 53L23 53L23 52L22 52L22 51L21 51L21 50L20 50L20 49L21 49L21 48L22 48L22 49L24 49L24 50L23 50L23 51L24 51L24 53L27 53L27 52L28 52L28 53L29 53L29 52L28 52L28 51L29 51L29 50L30 50L30 53L33 53L33 51L34 51L34 53L35 53L35 51L36 51L36 49L37 49L37 52L36 52L36 53L37 53L37 52L38 52L38 51L39 51L39 52L40 52L40 53L42 53L42 52L44 52L44 53L45 53L45 52L46 52L46 51L47 51L47 50L48 50L48 52L47 52L47 53L48 53L48 52L50 52L50 51L51 51L51 50L52 50L52 49L53 49L53 48L52 48L52 49L50 49L50 47L51 47L51 44L50 44L50 43L51 43L51 40L50 40L50 35L51 35L51 36L52 36L52 37L51 37L51 38L52 38L52 43L53 43L53 38L52 38L52 37L53 37L53 36L52 36L52 35L53 35L53 32L51 32L51 34L50 34L50 35L49 35L49 34L48 34L48 36L49 36L49 39L48 39L48 38L47 38L47 36L45 36L45 33L46 33L46 32L48 32L48 29L49 29L49 26L50 26L50 27L51 27L51 29L50 29L50 31L51 31L51 30L52 30L52 31L53 31L53 30L52 30L52 27L53 27L53 26L52 26L52 27L51 27L51 25L53 25L53 22L52 22L52 23L51 23L51 21L52 21L52 20L53 20L53 17L52 17L52 15L53 15L53 12L50 12L50 11L49 11L49 8L44 8L44 7L45 7L45 6L44 6L44 7L43 7L43 3L44 3L44 4L45 4L45 3L44 3L44 1L43 1L43 0L38 0L38 2L35 2L35 3L34 3L34 5L32 5L32 3L33 3L33 2L31 2L31 0L30 0L30 3L29 3L29 4L26 4L26 3L27 3L27 2L28 2L28 1L29 1L29 0L28 0L28 1L27 1L27 2L26 2L26 1L25 1L25 0L24 0L24 2L23 2L23 1L22 1L22 0L20 0L20 1L19 1L19 0L18 0L18 1L16 1L16 2L19 2L19 3L20 3L20 1L22 1L22 2L21 2L21 4L20 4L20 5L19 5L19 4L18 4L18 3L17 3L17 4L16 4L16 3L15 3L15 2L14 2L14 1L15 1L15 0ZM34 0L34 1L36 1L36 0ZM9 1L9 2L11 2L11 4L12 4L12 5L13 5L13 7L12 7L12 6L11 6L11 7L12 7L12 9L11 9L11 10L13 10L13 11L10 11L10 10L8 10L8 11L10 11L10 15L9 15L9 16L8 16L8 14L7 14L7 13L6 13L6 14L7 14L7 15L5 15L5 14L3 14L3 13L1 13L1 14L2 14L2 15L1 15L1 17L2 17L2 15L3 15L3 16L5 16L5 17L6 17L6 18L3 18L3 19L4 19L4 20L5 20L5 23L6 23L6 24L9 24L9 25L10 25L10 24L11 24L11 26L12 26L12 24L13 24L13 22L12 22L12 23L10 23L10 24L9 24L9 22L11 22L11 20L10 20L10 21L9 21L9 19L10 19L10 17L11 17L11 19L12 19L12 20L13 20L13 21L14 21L14 22L15 22L15 23L14 23L14 24L15 24L15 25L14 25L14 26L15 26L15 30L10 30L10 29L9 29L9 30L8 30L8 29L6 29L6 30L8 30L8 31L9 31L9 30L10 30L10 32L11 32L11 33L13 33L13 34L15 34L15 32L16 32L16 31L17 31L17 29L18 29L18 32L17 32L17 34L16 34L16 35L18 35L18 32L21 32L21 31L22 31L22 32L24 32L24 31L22 31L22 28L23 28L23 30L24 30L24 28L23 28L23 27L24 27L24 25L22 25L22 23L23 23L23 24L29 24L29 23L28 23L28 20L29 20L29 21L30 21L30 22L31 22L31 21L32 21L32 23L31 23L31 25L29 25L29 27L31 27L31 28L29 28L29 29L30 29L30 30L29 30L29 31L28 31L28 30L26 30L26 31L25 31L25 34L24 34L24 33L23 33L23 34L21 34L21 33L20 33L20 34L19 34L19 37L20 37L20 40L19 40L19 41L18 41L18 36L16 36L16 38L17 38L17 39L16 39L16 40L17 40L17 41L14 41L14 42L13 42L13 41L11 41L11 40L10 40L10 39L8 39L8 37L9 37L9 38L10 38L10 35L11 35L11 36L12 36L12 37L11 37L11 38L14 38L14 36L12 36L12 34L10 34L10 33L8 33L8 32L7 32L7 31L6 31L6 32L7 32L7 33L6 33L6 34L5 34L5 36L3 36L3 35L4 35L4 34L3 34L3 35L1 35L1 37L2 37L2 36L3 36L3 38L4 38L4 39L3 39L3 42L2 42L2 41L1 41L1 42L2 42L2 43L3 43L3 42L5 42L5 41L6 41L6 42L7 42L7 43L10 43L10 41L11 41L11 44L10 44L10 45L9 45L9 46L10 46L10 45L12 45L12 48L10 48L10 49L11 49L11 50L12 50L12 48L13 48L13 47L14 47L14 46L15 46L15 43L16 43L16 42L17 42L17 44L16 44L16 46L17 46L17 45L18 45L18 46L19 46L19 45L20 45L20 47L18 47L18 48L20 48L20 47L22 47L22 48L23 48L23 46L24 46L24 43L23 43L23 41L24 41L24 39L25 39L25 38L27 38L27 39L26 39L26 40L27 40L27 39L28 39L28 41L27 41L27 42L25 42L25 43L26 43L26 44L27 44L27 43L28 43L28 44L29 44L29 45L30 45L30 46L29 46L29 48L30 48L30 47L31 47L31 49L30 49L30 50L31 50L31 49L32 49L32 51L33 51L33 49L34 49L34 51L35 51L35 49L36 49L36 48L33 48L33 49L32 49L32 46L33 46L33 47L34 47L34 46L35 46L35 47L37 47L37 49L38 49L38 50L40 50L40 48L39 48L39 47L40 47L40 46L41 46L41 45L40 45L40 44L42 44L42 43L43 43L43 40L42 40L42 39L44 39L44 38L45 38L45 39L46 39L46 40L45 40L45 43L46 43L46 44L48 44L48 42L50 42L50 41L48 41L48 42L47 42L47 43L46 43L46 41L47 41L47 40L48 40L48 39L46 39L46 37L44 37L44 38L43 38L43 36L44 36L44 33L45 33L45 32L46 32L46 30L47 30L47 29L46 29L46 30L45 30L45 32L44 32L44 30L43 30L43 29L44 29L44 24L42 24L42 26L40 26L40 24L41 24L41 21L40 21L40 20L39 20L39 19L40 19L40 16L41 16L41 17L42 17L42 19L44 19L44 20L45 20L45 21L44 21L44 23L48 23L48 24L49 24L49 23L50 23L50 24L51 24L51 23L50 23L50 21L51 21L51 20L52 20L52 18L51 18L51 19L50 19L50 17L51 17L51 15L52 15L52 14L51 14L51 13L50 13L50 14L51 14L51 15L50 15L50 17L48 17L48 16L49 16L49 13L48 13L48 9L46 9L46 10L47 10L47 12L46 12L46 11L44 11L44 12L46 12L46 14L47 14L47 13L48 13L48 15L45 15L45 13L44 13L44 14L43 14L43 11L42 11L42 10L43 10L43 8L41 8L41 9L42 9L42 10L40 10L40 9L39 9L39 7L40 7L40 6L39 6L39 5L40 5L40 4L41 4L41 5L42 5L42 3L43 3L43 2L42 2L42 3L41 3L41 1L40 1L40 2L38 2L38 3L36 3L36 5L34 5L34 6L33 6L33 8L34 8L34 6L35 6L35 9L34 9L34 10L33 10L33 9L30 9L30 11L29 11L29 12L28 12L28 10L29 10L29 9L26 9L26 10L27 10L27 11L26 11L26 14L27 14L27 15L26 15L26 16L27 16L27 15L28 15L28 16L29 16L29 17L30 17L30 18L31 18L31 19L28 19L28 18L27 18L27 19L26 19L26 20L27 20L27 23L26 23L26 21L25 21L25 22L24 22L24 20L25 20L25 19L24 19L24 18L26 18L26 17L24 17L24 16L25 16L25 13L24 13L24 16L23 16L23 13L22 13L22 11L20 11L20 10L23 10L23 9L22 9L22 8L21 8L21 7L22 7L22 4L23 4L23 8L24 8L24 3L23 3L23 2L22 2L22 4L21 4L21 5L20 5L20 6L19 6L19 7L18 7L18 4L17 4L17 7L16 7L16 6L15 6L15 5L16 5L16 4L15 4L15 3L14 3L14 4L13 4L13 3L12 3L12 2L11 2L11 1ZM25 2L25 3L26 3L26 2ZM38 3L38 5L36 5L36 9L37 9L37 11L36 11L36 10L34 10L34 11L33 11L33 10L32 10L32 11L31 11L31 12L30 12L30 13L31 13L31 12L32 12L32 13L33 13L33 15L32 15L32 14L31 14L31 15L32 15L32 17L31 17L31 18L33 18L33 19L31 19L31 20L30 20L30 21L31 21L31 20L32 20L32 21L33 21L33 23L32 23L32 27L34 27L34 28L32 28L32 29L31 29L31 30L30 30L30 31L31 31L31 30L32 30L32 29L33 29L33 31L34 31L34 33L33 33L33 32L32 32L32 33L33 33L33 34L30 34L30 33L31 33L31 32L29 32L29 34L30 34L30 35L29 35L29 36L28 36L28 33L27 33L27 32L28 32L28 31L26 31L26 34L25 34L25 36L26 36L26 37L27 37L27 38L28 38L28 39L30 39L30 37L31 37L31 38L32 38L32 37L33 37L33 38L34 38L34 37L35 37L35 39L34 39L34 40L33 40L33 39L31 39L31 43L30 43L30 40L29 40L29 41L28 41L28 43L30 43L30 44L31 44L31 43L34 43L34 44L32 44L32 45L33 45L33 46L34 46L34 44L36 44L36 45L35 45L35 46L36 46L36 45L37 45L37 47L39 47L39 46L38 46L38 45L37 45L37 44L40 44L40 43L42 43L42 40L41 40L41 39L42 39L42 35L43 35L43 34L42 34L42 31L43 31L43 30L42 30L42 29L43 29L43 26L42 26L42 27L41 27L41 28L40 28L40 30L39 30L39 31L38 31L38 33L37 33L37 31L36 31L36 33L35 33L35 30L36 30L36 29L37 29L37 28L38 28L38 29L39 29L39 27L40 27L40 26L39 26L39 27L37 27L37 28L36 28L36 29L35 29L35 26L34 26L34 25L35 25L35 24L36 24L36 26L37 26L37 24L36 24L36 23L39 23L39 22L40 22L40 21L39 21L39 22L38 22L38 20L36 20L36 18L37 18L37 19L38 19L38 16L39 16L39 15L40 15L40 14L41 14L41 15L42 15L42 17L43 17L43 18L44 18L44 19L45 19L45 20L46 20L46 21L45 21L45 22L46 22L46 21L47 21L47 18L48 18L48 19L49 19L49 20L48 20L48 23L49 23L49 21L50 21L50 19L49 19L49 18L48 18L48 17L47 17L47 18L46 18L46 16L45 16L45 18L44 18L44 15L43 15L43 14L42 14L42 12L40 12L40 14L39 14L39 15L37 15L37 11L38 11L38 13L39 13L39 11L40 11L40 10L39 10L39 11L38 11L38 8L37 8L37 6L38 6L38 7L39 7L39 6L38 6L38 5L39 5L39 4L40 4L40 3ZM14 4L14 5L15 5L15 4ZM29 4L29 5L30 5L30 6L29 6L29 8L30 8L30 6L31 6L31 7L32 7L32 5L30 5L30 4ZM25 5L25 8L28 8L28 5ZM14 6L14 7L13 7L13 10L14 10L14 13L13 13L13 14L14 14L14 13L15 13L15 15L14 15L14 16L15 16L15 18L14 18L14 21L15 21L15 22L16 22L16 23L15 23L15 24L16 24L16 25L17 25L17 24L18 24L18 27L17 27L17 26L16 26L16 27L17 27L17 28L18 28L18 29L19 29L19 30L20 30L20 29L21 29L21 27L23 27L23 26L20 26L20 23L22 23L22 22L23 22L23 20L24 20L24 19L23 19L23 16L22 16L22 15L21 15L21 14L22 14L22 13L21 13L21 12L20 12L20 13L19 13L19 10L20 10L20 9L19 9L19 8L20 8L20 7L21 7L21 6L20 6L20 7L19 7L19 8L18 8L18 7L17 7L17 8L16 8L16 9L17 9L17 8L18 8L18 13L19 13L19 15L18 15L18 14L16 14L16 12L15 12L15 10L14 10L14 9L15 9L15 8L14 8L14 7L15 7L15 6ZM26 6L26 7L27 7L27 6ZM41 6L41 7L42 7L42 6ZM51 8L51 9L52 9L52 11L53 11L53 8ZM44 9L44 10L45 10L45 9ZM16 10L16 11L17 11L17 10ZM3 11L3 12L4 12L4 11ZM24 11L24 12L25 12L25 11ZM32 11L32 12L33 12L33 13L34 13L34 14L36 14L36 11L34 11L34 12L33 12L33 11ZM8 12L8 13L9 13L9 12ZM27 12L27 13L28 13L28 15L29 15L29 13L28 13L28 12ZM20 13L20 14L21 14L21 13ZM10 15L10 16L9 16L9 17L8 17L8 16L6 16L6 17L8 17L8 19L9 19L9 17L10 17L10 16L11 16L11 17L12 17L12 16L13 16L13 15L12 15L12 16L11 16L11 15ZM16 15L16 16L17 16L17 18L16 18L16 19L17 19L17 20L15 20L15 21L16 21L16 22L17 22L17 21L18 21L18 22L19 22L19 21L18 21L18 19L19 19L19 20L20 20L20 22L21 22L21 21L22 21L22 20L20 20L20 19L22 19L22 16L21 16L21 17L20 17L20 15L19 15L19 17L20 17L20 19L19 19L19 18L18 18L18 15ZM34 15L34 19L35 19L35 18L36 18L36 15ZM6 18L6 19L7 19L7 18ZM17 18L17 19L18 19L18 18ZM27 19L27 20L28 20L28 19ZM6 20L6 21L7 21L7 22L6 22L6 23L8 23L8 21L7 21L7 20ZM34 20L34 23L36 23L36 22L35 22L35 21L36 21L36 20ZM42 20L42 23L43 23L43 20ZM2 21L2 22L4 22L4 21ZM16 23L16 24L17 24L17 23ZM5 25L5 28L8 28L8 25ZM25 25L25 28L28 28L28 25ZM45 25L45 28L48 28L48 25ZM6 26L6 27L7 27L7 26ZM9 26L9 27L10 27L10 26ZM19 26L19 27L18 27L18 28L19 28L19 29L20 29L20 28L19 28L19 27L20 27L20 26ZM26 26L26 27L27 27L27 26ZM46 26L46 27L47 27L47 26ZM2 27L2 30L3 30L3 32L4 32L4 33L5 33L5 30L4 30L4 29L3 29L3 28L4 28L4 27ZM13 27L13 28L14 28L14 27ZM41 28L41 29L42 29L42 28ZM34 29L34 30L35 30L35 29ZM40 30L40 32L39 32L39 33L38 33L38 34L37 34L37 33L36 33L36 35L35 35L35 33L34 33L34 35L35 35L35 37L36 37L36 39L35 39L35 40L34 40L34 43L35 43L35 41L36 41L36 40L39 40L39 39L37 39L37 37L36 37L36 36L39 36L39 37L38 37L38 38L39 38L39 37L40 37L40 39L41 39L41 37L40 37L40 36L39 36L39 35L40 35L40 34L41 34L41 35L42 35L42 34L41 34L41 33L40 33L40 32L41 32L41 31L42 31L42 30ZM14 31L14 32L15 32L15 31ZM43 32L43 33L44 33L44 32ZM7 33L7 34L6 34L6 35L9 35L9 34L8 34L8 33ZM23 34L23 36L22 36L22 37L23 37L23 38L21 38L21 39L22 39L22 41L23 41L23 39L24 39L24 34ZM38 34L38 35L39 35L39 34ZM46 34L46 35L47 35L47 34ZM51 34L51 35L52 35L52 34ZM30 35L30 36L31 36L31 37L32 37L32 35ZM5 36L5 38L6 38L6 39L7 39L7 38L6 38L6 37L8 37L8 36ZM20 36L20 37L21 37L21 36ZM33 36L33 37L34 37L34 36ZM28 37L28 38L29 38L29 37ZM4 39L4 40L5 40L5 39ZM12 39L12 40L13 40L13 39ZM14 39L14 40L15 40L15 39ZM6 40L6 41L7 41L7 42L9 42L9 41L8 41L8 40ZM17 41L17 42L18 42L18 41ZM38 41L38 42L37 42L37 43L38 43L38 42L39 42L39 43L40 43L40 42L41 42L41 41ZM14 42L14 43L15 43L15 42ZM20 42L20 43L18 43L18 45L19 45L19 44L21 44L21 42ZM22 43L22 46L23 46L23 43ZM12 44L12 45L14 45L14 44ZM49 44L49 47L50 47L50 44ZM25 45L25 48L28 48L28 45ZM42 45L42 46L44 46L44 45ZM45 45L45 48L48 48L48 45ZM26 46L26 47L27 47L27 46ZM46 46L46 47L47 47L47 46ZM52 46L52 47L53 47L53 46ZM16 47L16 48L15 48L15 50L14 50L14 49L13 49L13 50L14 50L14 51L16 51L16 50L17 50L17 51L18 51L18 52L19 52L19 51L18 51L18 50L17 50L17 47ZM41 47L41 51L40 51L40 52L41 52L41 51L44 51L44 50L45 50L45 51L46 51L46 50L47 50L47 49L46 49L46 50L45 50L45 49L44 49L44 50L43 50L43 48L44 48L44 47ZM26 49L26 51L25 51L25 50L24 50L24 51L25 51L25 52L27 52L27 51L28 51L28 50L29 50L29 49ZM48 49L48 50L49 50L49 51L50 51L50 49ZM20 51L20 52L21 52L21 51ZM52 52L52 53L53 53L53 52ZM0 0L0 7L7 7L7 0ZM1 1L1 6L6 6L6 1ZM2 2L2 5L5 5L5 2ZM46 0L46 7L53 7L53 0ZM47 1L47 6L52 6L52 1ZM48 2L48 5L51 5L51 2ZM0 46L0 53L7 53L7 46ZM1 47L1 52L6 52L6 47ZM2 48L2 51L5 51L5 48Z" fill="#000000"/></g></g></svg>
